<?xml version="1.0" standalone="no"?>
<!DOCTYPE svg PUBLIC "-//W3C//DTD SVG 20010904//EN"
 "http://www.w3.org/TR/2001/REC-SVG-20010904/DTD/svg10.dtd">
<svg version="1.0" xmlns="http://www.w3.org/2000/svg"
 width="1280.000000pt" height="935.000000pt" viewBox="0 0 1280.000000 935.000000"
 preserveAspectRatio="xMidYMid meet">
<metadata>
Created by potrace 1.15, written by Peter Selinger 2001-2017
</metadata>
<g transform="translate(0.000000,935.000000) scale(0.100000,-0.100000)"
fill="#000000" stroke="none">
<path d="M0 9085 l0 -265 1205 0 1205 0 0 -997 0 -997 46 -170 c25 -94 103
-388 175 -653 71 -266 187 -701 259 -968 161 -601 357 -1331 501 -1870 248
-923 288 -1072 299 -1112 l11 -43 3904 0 c2147 0 3906 4 3909 8 2 4 65 235
140 512 147 552 284 1061 486 1815 72 270 180 672 240 895 60 223 179 667 264
986 l156 582 0 266 0 266 -4930 0 -4930 0 0 1005 0 1005 -1470 0 -1470 0 0
-265z m3227 -2427 l85 -147 -89 -155 c-48 -86 -90 -156 -93 -156 -6 0 -161
579 -160 598 0 10 21 12 86 10 l86 -3 85 -147z m253 147 c0 -7 -61 -115 -65
-115 -5 0 -65 106 -65 114 0 3 29 6 65 6 36 0 65 -2 65 -5z m804 -145 l86
-150 -209 -362 c-115 -199 -213 -363 -218 -365 -7 -2 -402 675 -418 718 -5 12
76 165 151 287 14 22 16 22 268 22 l254 0 86 -150z m256 146 c0 -3 -15 -30
-34 -62 l-34 -56 -31 53 c-17 30 -31 57 -31 62 0 4 29 7 65 7 36 0 65 -2 65
-4z m802 -146 l86 -149 -209 -363 c-115 -200 -212 -364 -217 -365 -7 -3 -415
697 -420 722 -3 12 76 158 145 268 l23 37 253 0 252 0 87 -150z m248 140 c0
-12 -53 -110 -60 -110 -7 0 -60 98 -60 110 0 6 27 10 60 10 33 0 60 -4 60 -10z
m807 -135 c45 -77 82 -146 83 -153 0 -17 -413 -732 -422 -729 -4 1 -102 165
-217 365 l-209 362 86 150 87 150 255 -2 255 -3 82 -140z m253 138 c0 -5 -14
-32 -31 -62 l-31 -53 -34 56 c-19 32 -34 59 -34 62 0 2 29 4 65 4 36 0 65 -3
65 -7z m807 -143 c46 -79 82 -149 81 -155 -5 -20 -413 -724 -420 -725 -3 0
-101 164 -217 365 l-211 365 86 150 87 150 255 -2 256 -3 83 -145z m253 144
c0 -4 -14 -31 -31 -61 l-32 -55 -33 53 c-19 30 -34 57 -34 62 0 4 29 7 65 7
36 0 65 -3 65 -6z m807 -146 l85 -148 -209 -361 c-114 -198 -212 -361 -217
-362 -6 -1 -104 161 -219 360 l-209 363 47 82 c26 46 65 113 87 151 l39 67
255 -2 255 -3 86 -147z m253 147 c0 -4 -59 -106 -65 -113 -3 -4 -65 102 -65
112 0 3 29 6 65 6 36 0 65 -2 65 -5z m804 -145 l86 -150 -209 -362 c-115 -199
-213 -364 -218 -365 -7 -2 -414 696 -421 722 -2 10 95 189 154 283 14 22 16
22 268 22 l253 0 87 -150z m256 146 c0 -3 -15 -30 -34 -61 l-34 -56 -31 51
c-17 27 -31 55 -31 60 0 6 29 10 65 10 36 0 65 -2 65 -4z m798 -139 c45 -79
82 -150 82 -157 0 -15 -411 -730 -419 -730 -9 0 -421 717 -421 731 0 12 116
219 152 272 l19 27 252 0 252 0 83 -143z m252 133 c0 -6 -7 -22 -15 -35 -8
-14 -22 -37 -31 -51 l-16 -26 -29 50 c-16 28 -29 56 -29 62 0 6 25 10 60 10
35 0 60 -4 60 -10z m807 -135 c45 -77 81 -147 80 -157 -3 -23 -410 -728 -419
-725 -4 1 -102 165 -217 365 l-210 362 87 150 87 150 254 -2 255 -3 83 -140z
m253 138 c0 -11 -61 -116 -65 -111 -6 7 -65 109 -65 113 0 3 29 5 65 5 36 0
65 -3 65 -7z m307 -15 c-44 -173 -133 -498 -137 -498 -3 0 -33 50 -68 110
l-62 110 86 150 86 150 50 0 c47 0 50 -1 45 -22z m-8622 -818 c109 -190 202
-352 208 -360 6 -11 -38 -97 -173 -330 -100 -173 -185 -319 -190 -323 -4 -5
-15 15 -23 45 -43 150 -249 925 -250 938 -1 22 214 393 223 383 4 -4 96 -163
205 -353z m1060 -5 c115 -198 208 -364 208 -370 0 -6 -94 -174 -209 -373 -158
-275 -211 -359 -220 -349 -30 34 -415 719 -411 731 5 13 352 616 399 694 11
18 21 32 23 30 1 -2 96 -165 210 -363z m1060 -1 c116 -201 210 -367 210 -369
0 -9 -420 -734 -425 -734 -7 0 -421 722 -421 734 0 13 414 734 421 734 3 0
100 -164 215 -365z m1066 -17 c120 -207 199 -354 195 -363 -9 -23 -398 -697
-410 -711 -9 -10 -62 75 -220 350 -115 199 -209 367 -209 372 0 6 94 173 209
372 182 316 211 360 222 345 7 -9 103 -173 213 -365z m1053 10 c113 -196 206
-359 206 -362 0 -7 -409 -717 -419 -728 -8 -8 -426 707 -426 728 0 19 419 735
426 728 3 -5 99 -169 213 -366z m1061 -5 c108 -189 198 -348 199 -355 2 -19
-416 -739 -425 -730 -8 9 -409 702 -416 720 -2 6 91 176 207 378 185 319 214
364 225 348 6 -10 101 -172 210 -361z m1050 13 c115 -198 208 -365 208 -370 0
-6 -94 -173 -209 -372 -157 -272 -212 -359 -220 -350 -12 14 -389 665 -406
702 -10 22 6 53 152 307 217 376 261 450 264 446 2 -2 97 -165 211 -363z
m1061 -6 c115 -200 209 -364 208 -367 -4 -12 -420 -731 -424 -731 -7 -1 -424
725 -422 735 2 18 417 731 423 728 4 -2 100 -166 215 -365z m932 217 c69 -118
79 -142 72 -165 -5 -14 -63 -231 -130 -481 -67 -250 -124 -463 -127 -474 -3
-10 -9 -14 -13 -10 -5 5 -78 130 -164 279 l-155 269 17 31 c10 16 105 182 212
367 107 186 198 334 201 330 4 -4 43 -69 87 -146z m-7804 -1139 l207 -358
-212 -367 c-117 -202 -213 -368 -214 -370 -6 -7 -404 698 -410 726 -6 29 12
65 191 375 216 374 214 371 224 360 4 -4 100 -169 214 -366z m1053 8 l212
-366 -211 -364 c-116 -201 -213 -365 -217 -365 -11 0 -422 721 -419 735 4 19
412 725 418 725 3 0 101 -164 217 -365z m1053 9 c113 -196 206 -362 208 -369
3 -14 -408 -735 -419 -735 -10 0 -424 723 -421 735 6 19 416 725 422 725 3 0
97 -160 210 -356z m1058 0 c105 -182 196 -342 202 -355 10 -22 -9 -60 -201
-392 -116 -202 -213 -366 -214 -365 -1 2 -97 168 -214 370 l-211 367 211 366
c170 294 214 364 224 353 7 -7 98 -162 203 -344z m1067 -17 l207 -358 -203
-352 c-111 -194 -208 -360 -214 -369 -12 -18 -3 -33 -338 549 l-99 173 157
272 c250 433 267 460 275 451 5 -4 101 -169 215 -366z m1054 7 l211 -365 -209
-362 c-115 -199 -213 -363 -218 -364 -10 -3 -418 705 -418 726 0 17 406 730
416 731 4 0 101 -165 218 -366z m1057 0 l211 -365 -208 -362 c-115 -199 -213
-363 -217 -365 -4 -1 -101 160 -216 359 -178 307 -208 365 -200 384 13 33 408
715 414 715 3 0 100 -165 216 -366z m1027 55 l179 -310 -56 -207 -56 -206
-107 -186 c-59 -102 -114 -197 -122 -212 -9 -16 -19 -28 -23 -28 -3 0 -101
164 -216 365 l-211 364 211 366 c116 201 214 365 217 365 3 0 86 -140 184
-311z m-6848 -964 c115 -198 208 -365 208 -371 0 -6 -94 -174 -208 -373 -161
-277 -212 -358 -221 -349 -13 15 -400 686 -409 710 -4 11 60 132 185 350 221
383 231 400 235 396 1 -2 96 -165 210 -363z m2120 -8 c187 -323 206 -361 196
-383 -17 -38 -393 -688 -405 -701 -9 -10 -59 70 -218 345 -114 196 -208 362
-210 369 -4 15 415 744 424 735 3 -4 100 -168 213 -365z m1059 -1 c114 -198
205 -364 203 -370 -7 -18 -408 -710 -416 -719 -5 -5 -104 157 -220 359 l-212
367 99 171 c54 94 150 260 212 368 63 109 117 195 121 190 3 -4 99 -169 213
-366z m1043 24 c110 -190 205 -355 211 -367 11 -19 -12 -62 -200 -388 -116
-201 -215 -362 -219 -358 -9 9 -409 700 -416 718 -4 11 416 750 422 743 2 -2
93 -158 202 -348z m1076 -30 c110 -190 200 -350 200 -356 0 -9 -408 -723 -420
-734 -3 -3 -7 0 -9 5 -3 6 -96 169 -209 364 -113 195 -205 359 -205 364 0 6
70 132 156 281 278 481 265 461 277 440 6 -11 100 -174 210 -364z m1053 10
c109 -190 199 -354 199 -365 0 -19 -404 -734 -415 -735 -8 0 -423 724 -422
735 1 6 95 173 209 372 153 266 211 358 219 350 6 -7 100 -167 210 -357z
m-5292 3 c113 -197 207 -362 207 -368 2 -11 -413 -735 -421 -735 -6 0 -426
728 -424 736 5 19 418 724 424 724 4 0 100 -161 214 -357z m-1940 -305 c37
-67 37 -68 20 -98 -10 -16 -21 -30 -24 -30 -4 0 -46 147 -67 235 -6 24 17 -11
71 -107z m360 -622 l207 -359 -88 -151 -88 -151 -45 0 -45 0 -23 85 c-12 47
-66 249 -121 450 l-98 365 30 55 c38 70 48 83 57 73 4 -4 100 -169 214 -367z
m1036 37 c107 -185 202 -350 211 -367 l16 -31 -86 -150 -87 -150 -251 -3 -251
-2 -87 150 c-48 82 -85 156 -83 163 4 19 412 726 418 727 3 0 93 -151 200
-337z m1070 -20 c113 -195 206 -362 208 -370 2 -7 -35 -81 -83 -163 l-87 -150
-251 2 -250 3 -87 151 -88 151 211 367 c116 201 214 366 217 366 3 0 97 -161
210 -357z m1063 -9 c108 -187 199 -348 202 -356 4 -10 -28 -76 -81 -167 l-88
-151 -250 2 -251 3 -88 151 -88 151 212 367 c168 290 215 364 224 354 7 -7
100 -166 208 -354z m1062 -7 l207 -359 -89 -154 -88 -154 -250 0 -250 0 -89
154 -88 155 192 333 c241 418 231 401 240 391 5 -4 101 -169 215 -366z m1056
3 l209 -362 -88 -152 -87 -151 -251 -3 -251 -2 -87 151 c-78 134 -87 155 -77
176 11 23 369 645 398 691 8 13 17 21 20 19 2 -3 99 -168 214 -367z m1055 4
l212 -367 -88 -151 -88 -151 -250 -3 -250 -2 -83 142 c-46 79 -83 152 -84 164
0 19 404 733 415 734 3 0 100 -165 216 -366z m860 345 c8 -16 -22 -139 -123
-516 -73 -273 -134 -498 -137 -500 -5 -6 -12 5 -106 167 -40 69 -73 130 -73
136 0 14 415 734 424 734 3 0 10 -10 15 -21z m-6826 -1011 c0 -5 -31 -8 -70
-8 -38 0 -70 2 -70 4 0 3 16 32 36 66 l37 61 33 -58 c18 -32 34 -61 34 -65z
m2084 61 c20 -33 36 -62 36 -65 0 -2 -31 -4 -70 -4 -38 0 -70 3 -70 6 0 5 63
124 66 124 1 0 18 -27 38 -61z m1065 -11 l32 -58 -76 0 -77 0 20 33 c10 17 28
47 38 64 21 37 20 38 63 -39z m1056 -56 c-19 -2 -52 -2 -74 0 l-40 3 36 63 35
63 38 -63 39 -63 -34 -3z m1085 6 c0 -5 -31 -8 -70 -8 -38 0 -70 2 -70 4 0 3
16 33 36 67 l36 61 34 -58 c18 -33 34 -62 34 -66z m-4261 57 c17 -30 31 -57
31 -60 0 -3 -31 -5 -70 -5 -38 0 -70 2 -70 5 0 12 63 115 70 115 4 0 22 -25
39 -55z m5289 1 c17 -30 32 -57 32 -60 0 -3 -31 -6 -70 -6 -38 0 -70 2 -70 5
0 11 62 115 69 115 3 0 21 -24 39 -54z"/>
<path d="M5548 1750 c-417 -76 -713 -409 -735 -825 -19 -364 195 -711 524
-849 135 -56 207 -71 358 -70 122 1 151 4 228 27 383 117 625 423 644 812 19
408 -247 772 -647 885 -84 24 -291 35 -372 20z"/>
<path d="M9580 1749 c-303 -54 -573 -279 -676 -564 -60 -166 -70 -375 -24
-535 73 -258 260 -474 497 -574 135 -56 207 -71 358 -70 122 1 151 4 229 28
307 93 519 304 613 613 23 77 27 106 27 228 1 107 -4 156 -18 209 -87 325
-312 556 -628 646 -85 25 -290 35 -378 19z"/>
</g>
</svg>
