<?xml version="1.0" encoding="UTF-8" standalone="no"?>
<svg
   xmlns:dc="http://purl.org/dc/elements/1.1/"
   xmlns:cc="http://creativecommons.org/ns#"
   xmlns:rdf="http://www.w3.org/1999/02/22-rdf-syntax-ns#"
   xmlns:svg="http://www.w3.org/2000/svg"
   xmlns="http://www.w3.org/2000/svg"
   xmlns:sodipodi="http://sodipodi.sourceforge.net/DTD/sodipodi-0.dtd"
   xmlns:inkscape="http://www.inkscape.org/namespaces/inkscape"
   version="1.0"
   width="37.500061pt"
   height="51.356789pt"
   viewBox="0 0 37.500061 51.356789"
   preserveAspectRatio="xMidYMid meet"
   id="svg804"
   sodipodi:docname="linked.svg"
   inkscape:version="0.92.2 2405546, 2018-03-11">
  <metadata
     id="metadata810">
    <rdf:RDF>
      <cc:Work
         rdf:about="">
        <dc:format>image/svg+xml</dc:format>
        <dc:type
           rdf:resource="http://purl.org/dc/dcmitype/StillImage" />
        <dc:title></dc:title>
      </cc:Work>
    </rdf:RDF>
  </metadata>
  <defs
     id="defs808" />
  <sodipodi:namedview
     pagecolor="#48001E"
     bordercolor="#666666"
     borderopacity="1"
     objecttolerance="10"
     gridtolerance="10"
     guidetolerance="10"
     inkscape:pageopacity="0"
     inkscape:pageshadow="2"
     inkscape:window-width="1920"
     inkscape:window-height="1027"
     id="namedview806"
     showgrid="false"
     inkscape:zoom="0.49277344"
     inkscape:cx="850.83333"
     inkscape:cy="-782.80682"
     inkscape:window-x="0"
     inkscape:window-y="0"
     inkscape:window-maximized="1"
     inkscape:current-layer="svg804" />
  <g
     transform="matrix(0.00293141,0,0,-0.00401468,-0.01099279,51.371845)"
     id="g802"
     style="fill:#fff;stroke:none">
    <path
       d="m 2200,12793 c -234,-23 -378,-53 -565,-114 -341,-112 -655,-309 -930,-584 C 316,11705 96,11264 18,10715 -1,10583 -1,2217 18,2085 96,1537 317,1092 704,704 1092,317 1537,96 2085,18 c 132,-19 8498,-19 8630,0 549,78 990,298 1380,687 389,390 609,831 687,1380 19,132 19,8498 0,8630 -53,375 -171,695 -361,980 -104,158 -189,262 -319,392 -384,386 -802,600 -1347,691 -92,15 -429,17 -4310,18 -2316,0 -4226,-1 -4245,-3 z m 1017,-2167 c 318,-65 568,-253 703,-531 124,-255 137,-564 33,-823 -86,-218 -285,-421 -507,-522 -298,-135 -731,-133 -1025,6 -121,57 -198,113 -291,210 -126,132 -200,264 -242,431 -19,74 -23,114 -23,258 1,145 4,182 24,255 46,170 124,305 250,431 155,155 357,256 571,288 41,6 86,13 100,15 50,9 337,-4 407,-18 z M 8975,7976 c 257,-38 443,-94 650,-196 561,-274 932,-757 1094,-1423 106,-435 113,-590 109,-2692 l -3,-1580 -962,-3 -962,-2 -4,1687 c -3,1851 0,1747 -62,1993 -104,407 -337,643 -697,706 -128,22 -370,14 -482,-16 -164,-44 -296,-122 -429,-253 -105,-104 -174,-197 -237,-319 -63,-121 -87,-214 -100,-382 -6,-80 -10,-774 -10,-1773 V 2080 h -959 -959 l 2,2895 1,2895 h 957 958 l 2,-407 3,-408 53,77 c 116,172 308,374 462,489 274,205 597,328 965,368 121,13 486,5 610,-13 z M 3900,4975 V 2080 l -962,2 -963,3 -3,2880 c -1,1584 0,2886 3,2893 3,9 206,12 965,12 h 960 z"
       id="path800"
       inkscape:connector-curvature="0" />
  </g>
</svg>
