<?xml version="1.0" encoding="UTF-8" standalone="no"?>
<svg
   xmlns:dc="http://purl.org/dc/elements/1.1/"
   xmlns:cc="http://creativecommons.org/ns#"
   xmlns:rdf="http://www.w3.org/1999/02/22-rdf-syntax-ns#"
   xmlns:svg="http://www.w3.org/2000/svg"
   xmlns="http://www.w3.org/2000/svg"
   xmlns:sodipodi="http://sodipodi.sourceforge.net/DTD/sodipodi-0.dtd"
   xmlns:inkscape="http://www.inkscape.org/namespaces/inkscape"
   version="1.0"
   width="75pt"
   height="106.87057pt"
   viewBox="0 0 75 106.87057"
   preserveAspectRatio="xMidYMid meet"
   id="svg2150"
   sodipodi:docname="logo-header.svg"
   inkscape:version="0.92.2 2405546, 2018-03-11">
  <defs
     id="defs2154" />
  <sodipodi:namedview
     pagecolor="#ffffff"
     bordercolor="#666666"
     borderopacity="1"
     objecttolerance="10"
     gridtolerance="10"
     guidetolerance="10"
     inkscape:pageopacity="0"
     inkscape:pageshadow="2"
     inkscape:window-width="1920"
     inkscape:window-height="1027"
     id="namedview2152"
     showgrid="false"
     inkscape:zoom="0.49277344"
     inkscape:cx="597.0827"
     inkscape:cy="-526.79315"
     inkscape:window-x="0"
     inkscape:window-y="0"
     inkscape:window-maximized="1"
     inkscape:current-layer="svg2150" />
  <metadata
     id="metadata2140">
Created by potrace 1.15, written by Peter Selinger 2001-2017
<rdf:RDF>
  <cc:Work
     rdf:about="">
    <dc:format>image/svg+xml</dc:format>
    <dc:type
       rdf:resource="http://purl.org/dc/dcmitype/StillImage" />
    <dc:title></dc:title>
  </cc:Work>
</rdf:RDF>
</metadata>
  <g
     transform="matrix(0.00842449,0,0,-0.00842449,-0.01212978,107.8087)"
     id="g2148"
     style="fill:#fff;stroke:none">
    <path
       d="m 4126,12688 c -286,-842 -463,-1555 -511,-2055 -27,-282 -15,-437 50,-631 67,-200 167,-385 473,-874 147,-234 247,-416 277,-504 l 18,-51 -54,-109 c -61,-122 -43,-111 -200,-133 -76,-10 -178,-40 -277,-80 -29,-12 -51,-17 -47,-12 5,9 -24,31 -39,31 -13,0 -5,-30 10,-38 12,-7 1,-18 -55,-56 -152,-104 -274,-240 -359,-403 -23,-45 -46,-84 -51,-87 -13,-8 -351,-91 -516,-127 -167,-36 -185,-47 -185,-110 0,-52 28,-119 49,-119 42,0 257,33 390,59 80,16 160,31 176,34 l 30,6 -3,-120 c -4,-163 20,-287 92,-460 5,-12 -10,-20 -76,-39 -363,-103 -662,-342 -853,-684 -43,-78 -50,-86 -56,-65 -20,76 -128,248 -191,305 -59,53 -60,31 -3,-96 76,-169 137,-380 111,-380 -56,0 -212,32 -228,47 -84,76 -234,284 -301,418 -53,107 -137,358 -124,372 8,7 191,-26 257,-46 35,-11 65,-19 66,-18 8,7 -176,133 -251,172 -49,26 -94,54 -99,63 -15,27 1,338 24,444 128,607 583,1062 1198,1201 82,18 129,21 302,22 215,0 328,-15 477,-65 l 58,-19 -45,39 c -70,63 -200,147 -307,200 -605,297 -1327,165 -1792,-326 -197,-208 -330,-466 -393,-758 -28,-134 -31,-424 -5,-561 9,-49 17,-93 17,-96 0,-4 -33,-10 -72,-13 C 672,6924 311,6679 125,6296 -102,5831 -11,5290 355,4925 c 52,-52 129,-115 183,-150 89,-57 92,-61 87,-90 -45,-232 -24,-502 57,-719 117,-320 355,-583 668,-738 52,-26 99,-48 105,-48 5,0 -20,30 -57,68 -264,268 -402,675 -359,1051 15,130 24,155 49,142 30,-16 220,-33 291,-26 318,30 560,141 771,354 100,100 200,237 200,274 1,21 1,21 15,-3 8,-14 14,-33 15,-43 0,-10 -59,-132 -130,-272 l -131,-253 86,-47 c 48,-26 87,-45 88,-43 1,1 28,82 60,178 32,96 69,197 81,224 l 22,49 37,-64 c 90,-154 252,-333 380,-419 36,-25 67,-49 67,-53 0,-4 -23,-36 -51,-70 -164,-199 -205,-254 -245,-324 -89,-156 -149,-335 -184,-547 -12,-67 -23,-131 -25,-142 -4,-16 -27,-30 -98,-57 -200,-76 -349,-100 -592,-95 -107,2 -172,-1 -174,-7 -7,-15 111,-61 209,-82 129,-27 362,-25 500,6 58,13 113,27 123,32 16,9 17,1 17,-109 v -120 l -82,-25 c -380,-119 -696,-430 -826,-813 -86,-252 -87,-563 -2,-816 115,-344 374,-628 704,-773 l 59,-26 -54,59 c -176,189 -296,428 -340,672 -21,118 -17,354 9,477 52,242 162,450 332,627 87,91 197,182 207,173 3,-3 9,-66 14,-139 5,-73 18,-248 29,-388 11,-140 23,-317 26,-393 7,-128 9,-140 29,-153 36,-24 120,-30 149,-11 23,15 24,21 20,74 -9,109 -25,258 -54,513 -25,216 -60,556 -60,583 0,25 220,100 360,123 84,14 85,14 100,-8 145,-218 336,-387 567,-502 99,-49 132,-59 90,-26 -38,30 -148,165 -202,248 -51,80 -135,250 -135,275 0,14 7,14 63,1 34,-8 84,-22 110,-30 27,-9 50,-14 52,-12 6,6 -155,122 -217,157 -42,24 -58,39 -62,59 -23,116 -29,175 -29,302 0,222 41,403 133,595 37,76 117,210 145,243 10,12 147,-88 225,-163 222,-215 447,-364 595,-395 66,-14 103,2 139,58 47,72 45,77 -34,119 -93,50 -181,106 -154,98 32,-9 194,30 290,69 121,49 222,115 323,211 l 87,84 54,-70 c 75,-100 198,-218 318,-309 l 103,-78 6,-68 c 23,-297 -21,-543 -138,-775 -216,-431 -649,-727 -1122,-767 -197,-17 -217,-8 -302,135 -70,117 -143,213 -184,243 -57,40 -55,24 13,-115 73,-149 84,-187 62,-219 -23,-37 -20,-50 24,-101 22,-25 45,-64 52,-88 18,-58 17,-361 -1,-452 -50,-254 -175,-490 -356,-670 -183,-184 -400,-300 -668,-357 -85,-18 -135,-21 -299,-21 -218,0 -234,-6 -125,-50 161,-65 437,-74 647,-22 111,27 236,77 335,133 329,186 564,519 632,897 21,117 20,342 -1,449 -16,80 -13,125 8,127 6,1 99,2 206,3 159,2 212,6 286,23 373,87 669,286 874,588 139,206 213,429 230,697 6,98 14,156 24,177 16,29 15,33 -13,88 -17,32 -29,59 -27,60 2,2 19,-4 39,-12 20,-8 39,-15 43,-15 3,0 -21,29 -55,65 -36,39 -61,75 -61,88 0,36 -83,230 -135,315 -59,98 -134,194 -145,187 -12,-8 -48,111 -65,215 -13,78 -25,220 -19,220 1,0 26,-16 55,-36 51,-34 201,-114 215,-114 3,0 -19,27 -50,61 -70,75 -127,158 -172,252 -32,65 -35,78 -29,129 9,87 33,158 50,152 8,-3 53,-1 101,6 223,29 452,145 600,302 35,36 65,58 93,66 76,23 91,46 103,147 6,50 14,92 19,95 12,8 56,146 73,232 9,42 16,108 16,146 v 70 l 78,21 c 43,12 84,21 90,21 7,0 52,-20 100,-44 137,-68 146,-68 78,0 l -59,59 64,9 c 134,17 438,-22 599,-79 l 45,-15 -40,35 c -70,62 -240,172 -338,218 -151,73 -305,116 -500,142 -53,7 -59,15 -103,133 -25,64 -25,65 -8,140 22,98 31,251 22,384 -7,108 -46,294 -74,354 -18,37 -15,55 23,179 48,151 167,371 265,488 l 23,28 113,-75 c 142,-94 253,-181 409,-318 68,-60 129,-108 137,-108 33,0 106,99 106,143 0,7 -31,39 -70,71 -38,32 -70,65 -70,73 0,8 -6,13 -12,10 -7,-2 -38,15 -68,38 -51,39 -208,143 -290,193 -19,11 -61,33 -92,48 -32,15 -58,30 -58,33 0,4 33,34 73,67 200,168 424,278 685,337 82,18 129,21 302,22 216,0 332,-16 476,-65 32,-11 59,-20 62,-20 8,0 -120,100 -182,143 -82,55 -253,139 -361,175 -563,190 -1191,32 -1603,-403 l -92,-97 -72,7 c -80,7 -311,-9 -419,-30 -68,-12 -69,-12 -154,22 -192,77 -436,113 -630,93 -54,-6 -99,-9 -100,-8 -61,91 -250,476 -320,653 -161,407 -273,810 -321,1150 -49,359 77,921 374,1660 71,178 199,469 253,577 22,43 39,82 39,88 0,5 -123,72 -272,147 -150,76 -275,139 -278,140 -3,2 -23,-47 -44,-109 z m 414,-4335 c 0,-7 -11,-13 -25,-13 -25,0 -25,0 -9,26 13,19 19,22 25,12 5,-7 9,-19 9,-25 z m 1442,-121 37,-7 -35,-55 c -60,-93 -131,-242 -164,-342 -56,-175 -73,-283 -74,-483 0,-169 8,-247 40,-382 5,-19 -2,-17 -78,22 -45,23 -121,55 -168,70 l -85,28 -1,136 c 0,106 -6,155 -23,221 -30,116 -108,272 -169,340 -53,58 -75,61 -53,7 100,-246 134,-435 115,-626 l -7,-61 h -83 -83 l 33,78 c 47,109 69,206 63,272 -6,71 -39,148 -131,308 -41,72 -78,140 -81,153 -5,22 6,31 107,91 62,37 140,79 172,94 56,25 65,26 160,21 93,-6 259,-40 331,-67 29,-11 29,-11 11,9 -10,11 -59,49 -108,83 l -89,63 38,8 c 100,21 262,31 325,19 z M 4832,7864 c 239,-389 247,-528 47,-780 -37,-46 -62,-67 -101,-84 -59,-25 -186,-107 -233,-149 -24,-22 -52,-32 -140,-49 -60,-12 -120,-25 -132,-28 -21,-6 -21,-5 -8,34 8,21 21,93 31,158 20,148 14,375 -15,509 l -19,90 23,36 c 30,47 162,178 238,236 78,60 217,144 231,140 6,-2 41,-53 78,-113 z m -723,-669 c -8,-117 -25,-222 -54,-317 -7,-25 -11,-49 -8,-52 10,-9 -30,-7 -46,3 -17,11 -9,98 25,239 20,88 81,259 89,250 1,-2 -1,-57 -6,-123 z m 1675,-323 c 26,-7 34,-19 61,-88 44,-110 88,-195 154,-294 31,-47 60,-92 65,-100 9,-14 -66,48 -89,74 -10,11 -32,20 -120,53 -136,50 -380,27 -657,-61 l -46,-15 45,47 c 82,86 192,276 209,362 7,32 21,37 114,42 58,4 226,-9 264,-20 z m -585,-104 c -82,-150 -190,-268 -330,-364 -56,-38 -76,-47 -127,-51 -56,-5 -64,-9 -88,-40 -41,-54 -40,-31 1,44 126,225 353,414 582,482 1,1 -16,-32 -38,-71 z M 1306,6648 c 10,-24 42,-80 71,-125 141,-226 343,-413 586,-544 90,-49 91,-50 47,-45 -175,22 -300,30 -470,30 -299,1 -400,-27 -430,-119 -12,-36 -2,-72 24,-94 14,-12 37,-11 149,3 139,17 552,21 612,6 22,-6 12,-8 -43,-9 -82,-1 -241,-31 -336,-62 -115,-39 -283,-128 -384,-203 -230,-173 -380,-388 -476,-680 -6,-17 -13,-11 -46,35 -51,70 -132,233 -164,330 -74,224 -72,509 6,744 112,341 392,626 733,746 44,16 85,29 91,29 6,0 20,-19 30,-42 z m 3004,-83 c 0,-3 -11,-28 -25,-55 -48,-94 -105,-281 -105,-347 -1,-15 -7,-39 -14,-52 -12,-22 -15,-19 -54,70 -60,139 -60,137 -14,214 23,36 49,86 59,110 17,41 21,45 63,50 25,4 52,8 60,9 26,6 30,6 30,1 z m -592,-221 22,-45 -35,-42 c -88,-104 -283,-251 -435,-327 -102,-51 -179,-81 -293,-113 l -85,-24 14,34 c 18,42 69,126 110,180 l 32,43 14,-22 c 15,-23 15,-23 76,34 34,31 101,82 149,115 84,56 377,212 399,213 5,0 20,-21 32,-46 z m 1947,-24 c 34,-8 37,-6 -87,-45 -164,-51 -353,-180 -469,-320 l -62,-75 -27,58 c -36,76 -108,190 -127,200 -31,18 274,136 441,171 93,20 271,26 331,11 z m -776,-362 c 16,-40 38,-108 50,-150 l 22,-76 -23,-58 c -26,-64 -23,-62 -138,-65 -70,-1 -81,2 -169,45 -52,25 -98,52 -103,59 -9,14 -11,228 -2,252 4,9 70,48 148,86 l 140,70 23,-45 c 12,-24 36,-77 52,-118 z m -914,64 88,-83 -66,-97 -65,-97 -67,-18 c -37,-9 -111,-38 -165,-63 l -97,-45 -172,40 c -95,23 -175,41 -177,41 -2,0 -4,4 -4,8 0,4 21,14 47,21 81,24 295,138 383,204 47,35 110,88 140,119 30,30 58,54 61,54 4,-1 46,-38 94,-84 z m 2069,-402 1,-165 -47,-60 c -50,-65 -149,-163 -213,-212 -100,-76 -253,-149 -374,-177 l -61,-14 6,26 c 12,54 124,270 185,357 88,125 261,295 384,378 87,59 100,65 109,50 5,-9 10,-92 10,-183 z m -1830,165 c 4,-11 -2,-15 -26,-15 -30,0 -31,1 -12,15 24,18 31,18 38,0 z m -924,-270 c 68,-20 126,-38 128,-40 3,-2 -14,-23 -37,-47 -83,-85 -176,-240 -221,-369 l -24,-66 -43,57 c -51,69 -130,143 -143,135 -9,-6 -5,-16 74,-180 69,-142 76,-167 76,-264 0,-47 5,-115 10,-151 10,-71 6,-81 -68,-170 l -29,-35 -43,65 c -92,142 -164,326 -196,502 -23,124 -25,390 -3,433 9,19 21,29 32,27 11,-2 15,2 11,12 -6,16 57,67 116,93 119,52 173,52 360,-2 z m 1375,25 c 34,-6 91,-18 127,-29 47,-12 70,-15 77,-8 27,27 1,-136 -42,-271 l -33,-102 -51,67 c -84,111 -154,245 -177,336 -6,25 -4,27 16,22 13,-2 50,-9 83,-15 z m -309,-72 c 95,-140 241,-273 377,-343 51,-27 57,-33 52,-55 -11,-55 -25,-220 -25,-308 0,-86 -2,-96 -27,-130 -15,-20 -28,-38 -29,-40 -1,-1 -41,9 -90,23 -193,56 -443,71 -635,39 -159,-26 -390,-114 -492,-186 -16,-11 -31,-17 -35,-13 -12,11 -2,184 14,263 17,83 35,115 245,427 117,175 132,193 191,231 110,72 250,134 353,157 45,10 53,5 101,-65 z m -2056,-46 c 0,-72 -19,-131 -82,-257 -135,-267 -384,-483 -670,-584 -116,-40 -220,-61 -356,-69 l -111,-7 6,25 c 13,60 58,171 99,250 150,282 413,514 710,626 111,41 281,79 372,83 l 32,1 z M 4485,4365 c -174,-144 -415,-254 -650,-299 l -77,-14 29,30 c 38,40 170,127 268,176 103,51 247,99 349,116 113,19 115,19 81,-9 z m 360,-70 c 16,-44 44,-113 62,-153 l 33,-74 -102,-103 c -176,-175 -351,-270 -578,-309 -79,-14 -86,-13 -122,5 -93,48 -370,230 -396,261 -9,11 -5,13 24,10 51,-6 236,15 332,38 237,57 477,190 647,359 33,33 63,56 66,53 3,-4 19,-43 34,-87 z m -1674,-37 c -4,-13 -6,-30 -3,-38 3,-9 -6,-5 -22,10 l -27,24 23,13 c 33,18 39,16 29,-9 z m -51,-53 30,-15 -65,-96 c -113,-165 -195,-351 -236,-537 -11,-51 -19,-64 -74,-116 -34,-32 -90,-79 -123,-105 -61,-47 -62,-47 -57,-19 29,188 66,326 119,453 44,103 91,183 163,273 57,71 177,177 200,177 8,0 27,-7 43,-15 z M 2829,3164 c 2,-54 30,-200 54,-276 l 23,-73 h -173 -173 v 50 c 0,86 13,215 21,215 14,0 187,102 210,125 21,19 25,20 31,6 4,-9 7,-30 7,-47 z"
       id="path2142"
       inkscape:connector-curvature="0" />
    <path
       d="m 4140,6199 c 0,-4 7,-9 15,-13 9,-3 15,0 15,8 0,7 -7,13 -15,13 -8,0 -15,-4 -15,-8 z"
       id="path2144"
       inkscape:connector-curvature="0" />
    <path
       d="m 8410,8259 c 0,-7 31,-66 69,-133 183,-319 257,-620 231,-937 -51,-629 -450,-1140 -1049,-1347 -97,-33 -116,-37 -216,-37 -88,0 -115,-4 -136,-18 -37,-25 -135,-31 -274,-18 -124,12 -137,16 -272,92 -39,22 -43,23 -59,7 -24,-24 -12,-58 45,-120 60,-66 84,-113 110,-216 78,-303 24,-615 -149,-873 -56,-82 -187,-213 -269,-269 -177,-119 -401,-188 -621,-191 -128,-1 -139,-21 -30,-53 77,-24 239,-31 341,-17 93,14 231,56 311,97 497,249 715,824 509,1339 -35,87 -38,113 -14,122 9,4 65,-4 124,-16 60,-12 163,-26 229,-31 186,-15 202,-27 295,-223 201,-425 202,-894 4,-1316 -219,-465 -660,-792 -1171,-867 -112,-16 -317,-15 -526,2 -62,5 -71,4 -66,-9 8,-22 109,-64 217,-92 394,-100 843,-23 1187,202 348,228 578,565 672,985 20,90 23,129 23,308 -1,173 -4,221 -23,307 -44,204 -126,391 -246,568 -36,53 -66,103 -66,110 0,23 39,41 125,60 178,39 390,134 552,248 113,80 281,247 362,362 73,104 169,294 206,409 55,172 69,266 69,476 1,215 -11,298 -66,470 -75,235 -232,488 -370,598 -43,34 -58,39 -58,21 z"
       id="path2146"
       inkscape:connector-curvature="0" />
  </g>
</svg>
