<?xml version="1.0" encoding="UTF-8" standalone="no"?>
<!-- Created with Inkscape (http://www.inkscape.org/) -->

<svg
   xmlns:dc="http://purl.org/dc/elements/1.1/"
   xmlns:cc="http://creativecommons.org/ns#"
   xmlns:rdf="http://www.w3.org/1999/02/22-rdf-syntax-ns#"
   xmlns:svg="http://www.w3.org/2000/svg"
   xmlns="http://www.w3.org/2000/svg"
   xmlns:sodipodi="http://sodipodi.sourceforge.net/DTD/sodipodi-0.dtd"
   xmlns:inkscape="http://www.inkscape.org/namespaces/inkscape"
   width="1.2993687mm"
   height="1.3044364mm"
   viewBox="0 0 1.2993687 1.3044365"
   version="1.1"
   id="svg4414"
   inkscape:version="0.92.2 2405546, 2018-03-11"
   sodipodi:docname="lupa.svg">
  <defs
     id="defs4408" />
  <sodipodi:namedview
     id="base"
     pagecolor="#ffffff"
     bordercolor="#666666"
     borderopacity="1.0"
     inkscape:pageopacity="0.0"
     inkscape:pageshadow="2"
     inkscape:zoom="22.4"
     inkscape:cx="9.4214559"
     inkscape:cy="-8.5043853"
     inkscape:document-units="mm"
     inkscape:current-layer="layer1"
     showgrid="false"
     inkscape:window-width="1920"
     inkscape:window-height="1027"
     inkscape:window-x="0"
     inkscape:window-y="0"
     inkscape:window-maximized="1" />
  <metadata
     id="metadata4411">
    <rdf:RDF>
      <cc:Work
         rdf:about="">
        <dc:format>image/svg+xml</dc:format>
        <dc:type
           rdf:resource="http://purl.org/dc/dcmitype/StillImage" />
        <dc:title></dc:title>
      </cc:Work>
    </rdf:RDF>
  </metadata>
  <g
     inkscape:label="Capa 1"
     inkscape:groupmode="layer"
     id="layer1"
     transform="translate(-50.403839,-33.524403)">
    <g
       transform="matrix(1.0495261e-4,0,0,-1.0513226e-4,50.381975,34.849759)"
       id="g4390"
       style="fill:#fff;stroke:none">
      <path
         d="m 4460,12604 c -25,-2 -101,-8 -170,-14 -727,-60 -1469,-321 -2085,-733 C 1359,11291 734,10464 422,9500 193,8794 146,7988 291,7255 425,6579 727,5916 1144,5381 c 189,-243 525,-596 719,-757 645,-532 1449,-844 2382,-924 177,-15 624,-12 818,5 618,54 1202,216 1727,479 91,46 175,89 188,97 21,13 84,-48 1980,-1942 1254,-1254 1980,-1973 2022,-2001 142,-99 259,-140 400,-139 156,0 303,58 477,187 106,79 454,428 536,539 196,263 244,497 148,733 -65,161 9,84 -2073,2167 -1071,1073 -1948,1954 -1948,1958 0,4 26,54 59,110 325,565 526,1213 580,1880 6,70 11,229 11,352 0,245 -11,405 -41,620 -179,1271 -880,2391 -1946,3106 -608,408 -1288,654 -2033,734 -137,15 -593,27 -690,19 z m 425,-1515 c 700,-52 1346,-342 1834,-822 264,-260 431,-489 586,-802 146,-295 229,-556 280,-885 26,-162 32,-567 10,-750 -77,-676 -364,-1271 -844,-1751 -452,-452 -996,-727 -1645,-831 -123,-20 -178,-23 -431,-23 -255,0 -307,3 -434,23 -452,73 -830,220 -1201,467 -1133,756 -1596,2194 -1118,3475 311,834 998,1491 1844,1763 372,120 741,165 1119,136 z"
         id="path4388"
         inkscape:connector-curvature="0" />
    </g>
  </g>
</svg>
