<?xml version="1.0" standalone="no"?>
<!DOCTYPE svg PUBLIC "-//W3C//DTD SVG 20010904//EN"
 "http://www.w3.org/TR/2001/REC-SVG-20010904/DTD/svg10.dtd">
<svg version="1.0" xmlns="http://www.w3.org/2000/svg"
 width="1280.000000pt" height="640.000000pt" viewBox="0 0 1280.000000 640.000000"
 preserveAspectRatio="xMidYMid meet">
<metadata>
Created by potrace 1.15, written by Peter Selinger 2001-2017
</metadata>
<g transform="translate(0.000000,640.000000) scale(0.100000,-0.100000)"
fill="#000000" stroke="none">
<path d="M520 4823 c-34 -13 -73 -48 -85 -77 -12 -28 -22 -81 -55 -291 -5 -33
-19 -118 -30 -190 -25 -155 -34 -218 -55 -350 -9 -55 -23 -143 -31 -195 -8
-52 -21 -137 -29 -187 -8 -51 -22 -136 -30 -188 -8 -52 -22 -137 -30 -187 -8
-51 -21 -137 -30 -190 -8 -54 -22 -140 -30 -190 -8 -51 -21 -136 -29 -188 -9
-52 -25 -156 -36 -230 -12 -74 -25 -155 -30 -180 -18 -91 -21 -184 -8 -201 30
-37 51 -39 378 -39 l322 0 -6 -28 c-14 -69 -36 -225 -36 -256 0 -26 7 -40 27
-56 26 -20 34 -21 324 -18 l297 3 27 25 c15 14 31 32 35 40 5 9 34 175 64 370
31 195 61 367 67 382 6 14 22 36 35 49 23 21 37 24 176 31 185 9 278 22 383
55 350 109 562 378 630 798 47 285 -25 514 -197 630 l-52 34 3 138 c3 157 -6
206 -56 310 -63 131 -187 243 -330 297 -205 77 -308 86 -998 85 -313 0 -577
-3 -585 -6z"/>
<path d="M4194 3959 c-18 -5 -39 -20 -48 -34 -11 -16 -61 -310 -156 -912 -77
-488 -140 -902 -140 -919 0 -58 20 -64 223 -64 187 0 224 7 246 48 5 10 28
134 50 276 23 142 46 267 51 277 21 38 49 44 275 50 178 5 235 11 299 28 271
72 434 250 506 552 54 226 27 407 -77 529 -81 94 -219 153 -401 170 -131 12
-785 12 -828 -1z m686 -400 c87 -30 123 -84 123 -184 0 -147 -69 -255 -183
-288 -63 -18 -324 -35 -332 -21 -5 8 52 397 67 461 12 51 29 56 165 50 69 -3
141 -11 160 -18z"/>
<path d="M9153 3956 c-17 -8 -37 -25 -44 -37 -6 -13 -76 -430 -155 -928 -141
-891 -143 -906 -125 -931 l18 -25 200 -3 c179 -2 203 -1 222 15 19 16 27 52
65 289 24 149 49 280 55 292 22 42 47 46 276 53 247 7 320 21 442 82 168 85
272 212 336 412 36 109 49 193 49 306 -1 248 -120 395 -375 460 -76 20 -115
22 -507 25 -354 4 -430 2 -457 -10z m641 -386 c85 -14 127 -38 154 -91 20 -38
23 -55 20 -125 -4 -65 -10 -93 -34 -140 -56 -111 -122 -140 -348 -150 l-139
-7 5 29 c4 16 21 126 39 244 25 161 38 219 51 232 15 15 35 18 106 18 48 0
113 -4 146 -10z"/>
<path d="M12385 3945 c-14 -13 -25 -29 -25 -36 0 -11 -45 -301 -220 -1412 -33
-208 -60 -391 -60 -407 0 -55 27 -62 214 -58 157 3 166 4 189 26 14 13 28 34
31 45 17 71 286 1806 282 1823 -9 36 -47 44 -222 44 -162 0 -165 0 -189 -25z"/>
<path d="M6001 3329 c-213 -55 -384 -197 -487 -404 -61 -124 -84 -223 -85
-360 0 -216 75 -376 221 -474 96 -63 180 -86 325 -85 66 0 140 6 165 13 71 20
201 86 247 125 22 20 43 36 45 36 2 0 2 -26 0 -59 -6 -87 3 -91 199 -91 86 0
170 5 186 11 18 6 37 23 47 42 10 19 52 259 107 610 85 543 90 580 75 603
l-16 24 -194 0 c-220 0 -219 1 -231 -84 l-8 -49 -35 37 c-51 55 -104 85 -189
107 -103 26 -270 25 -372 -2z m385 -354 c49 -20 99 -68 127 -120 31 -58 30
-187 -3 -270 -29 -73 -117 -166 -186 -195 -94 -41 -228 -43 -308 -5 -175 83
-182 356 -13 512 53 49 95 72 162 90 61 16 169 10 221 -12z"/>
<path d="M10971 3330 c-308 -81 -527 -340 -572 -675 -26 -197 30 -383 151
-506 191 -193 560 -198 798 -10 28 23 53 41 55 41 3 0 0 -22 -5 -50 -10 -58 1
-87 36 -96 12 -3 98 -4 189 -2 164 3 167 3 193 29 25 25 30 53 120 618 51 325
91 598 87 606 -11 30 -44 35 -226 35 -210 0 -212 -1 -223 -83 -4 -26 -8 -47
-10 -47 -2 0 -21 18 -41 41 -73 81 -193 119 -373 118 -71 0 -129 -6 -179 -19z
m370 -350 c49 -14 123 -81 142 -129 39 -97 31 -196 -26 -304 -72 -137 -221
-208 -389 -185 -82 11 -143 49 -183 112 -25 41 -31 62 -33 125 -11 233 167
412 393 396 33 -3 76 -9 96 -15z"/>
<path d="M7245 3306 c-26 -19 -22 -55 20 -176 105 -299 325 -954 325 -964 0
-7 -79 -124 -175 -260 -100 -142 -175 -258 -175 -271 0 -50 21 -55 223 -55
110 0 195 4 209 11 28 12 -14 -46 632 887 372 537 529 770 529 789 0 48 -20
53 -230 53 l-193 0 -29 -27 c-16 -16 -129 -175 -251 -355 -122 -181 -225 -328
-228 -328 -4 0 -41 114 -82 253 -119 406 -120 408 -148 433 -24 23 -29 24
-217 24 -145 0 -196 -3 -210 -14z"/>
</g>
</svg>
